<svg xmlns="http://www.w3.org/2000/svg" viewBox="0 0 24 24" height="48" width="48"><g><path d="M1.5,5.5h6A.5.5,0,0,0,8,5V4A1,1,0,0,0,7,3H5.25a.5.5,0,0,1-.5-.5V1a1,1,0,0,0-2,0V2.5a.5.5,0,0,1-.5.5H2A1,1,0,0,0,1,4V5A.5.5,0,0,0,1.5,5.5Z" fill="#000000"></path><path d="M17.5,8h5a.5.5,0,0,0,.5-.5V7a1,1,0,0,0-1-1H18a1,1,0,0,0-1,1v.5A.5.5,0,0,0,17.5,8Z" fill="#000000"></path><path d="M8,7H1A1,1,0,0,0,0,8V23a1,1,0,0,0,1,1H2.5a.5.5,0,0,0,.5-.5v-2a1,1,0,0,1,1-1H5a1,1,0,0,1,1,1v2a.5.5,0,0,0,.5.5H8a1,1,0,0,0,1-1V8A1,1,0,0,0,8,7ZM6.75,17.75H2.25a.75.75,0,0,1,0-1.5h4.5a.75.75,0,0,1,0,1.5Zm0-3.5H2.25a.75.75,0,0,1,0-1.5h4.5a.75.75,0,0,1,0,1.5Zm0-3.5H2.25a.75.75,0,0,1,0-1.5h4.5a.75.75,0,0,1,0,1.5Z" fill="#000000"></path><path d="M23,9.5H17a1,1,0,0,0-1,1V23a1,1,0,0,0,1,1h1a.5.5,0,0,0,.5-.5v-2a1,1,0,0,1,1-1h1a1,1,0,0,1,1,1v2a.5.5,0,0,0,.5.5h1a1,1,0,0,0,1-1V10.5A1,1,0,0,0,23,9.5Zm-1.25,8.25h-3.5a.75.75,0,0,1,0-1.5h3.5a.75.75,0,0,1,0,1.5Zm0-4h-3.5a.75.75,0,0,1,0-1.5h3.5a.75.75,0,0,1,0,1.5Z" fill="#000000"></path><rect x="10.5" y="14" width="4" height="10" rx="0.5" fill="#000000"></rect></g></svg>