<svg xmlns="http://www.w3.org/2000/svg" viewBox="0 0 24 24" height="48" width="48"><g><path d="M12,24c10.7,0,11.85-2.07,11.85-3,0-.64,0-2.15-7-2.77a1,1,0,1,0-.17,2,26.58,26.58,0,0,1,3.77.56.24.24,0,0,1,.19.24.26.26,0,0,1-.19.24A39.28,39.28,0,0,1,12,22a39.28,39.28,0,0,1-8.41-.74A.26.26,0,0,1,3.4,21a.24.24,0,0,1,.19-.24,27.59,27.59,0,0,1,3.73-.56,1,1,0,0,0,.9-1.07,1,1,0,0,0-1.07-.89c-7,.62-7,2.12-7,2.76C.15,23.71,8.44,24,12,24Z" fill="#000000"></path><path d="M13.27,6.63a.26.26,0,0,1-.17-.23.26.26,0,0,1,.16-.24,3.21,3.21,0,1,0-2.52,0,.26.26,0,0,1,.16.24.26.26,0,0,1-.17.23,4,4,0,0,0-2.68,3.74v3a.49.49,0,0,0,.49.5h.89a.24.24,0,0,1,.24.22L10,18.31a.48.48,0,0,0,.49.45h3a.48.48,0,0,0,.49-.45l.36-4.26a.24.24,0,0,1,.24-.22h.89a.49.49,0,0,0,.49-.5v-3A4,4,0,0,0,13.27,6.63Z" fill="#000000"></path><path d="M4.78,7.61a.25.25,0,0,1-.17-.22.27.27,0,0,1,.15-.24,2.72,2.72,0,1,0-2.31,0,.25.25,0,0,1,.15.24.25.25,0,0,1-.17.22A3.46,3.46,0,0,0,.15,10.86v1.49a.48.48,0,0,0,.14.34.49.49,0,0,0,.35.15h.82a.25.25,0,0,1,.25.22l.42,3.79a.48.48,0,0,0,.49.43h2a.48.48,0,0,0,.49-.43l.42-3.79a.25.25,0,0,1,.25-.22h.82a.49.49,0,0,0,.49-.49V10.86A3.46,3.46,0,0,0,4.78,7.61Z" fill="#000000"></path><path d="M21.57,7.61a.25.25,0,0,1-.17-.22.25.25,0,0,1,.15-.24,2.72,2.72,0,1,0-2.31,0,.27.27,0,0,1,.15.24.25.25,0,0,1-.17.22,3.46,3.46,0,0,0-2.28,3.25v1.49a.48.48,0,0,0,.14.34.49.49,0,0,0,.35.15h.82a.25.25,0,0,1,.25.22l.42,3.79a.48.48,0,0,0,.49.43h2a.48.48,0,0,0,.49-.43l.42-3.79a.25.25,0,0,1,.25-.22h.82a.49.49,0,0,0,.49-.49V10.86A3.46,3.46,0,0,0,21.57,7.61Z" fill="#000000"></path></g></svg>