<svg class="svg-icon" style="width: 1em; height: 1em;vertical-align: middle;fill: currentColor;overflow: hidden;" viewBox="0 0 1024 1024" version="1.1" xmlns="http://www.w3.org/2000/svg"><path d="M0 380.032h58.432s87.68 95.488 87.68 146.688c0 51.2-87.68 146.752-87.68 146.752H0V380.032zM146.176 160H949.76c40.32 0 73.088 32.832 73.088 73.344 0 40.512-32.704 73.344-73.088 73.344H146.176V160z m0 586.816H949.76c40.32 0 73.088 32.832 73.088 73.344 0 40.512-32.704 73.344-73.088 73.344H146.176v-146.688z m219.2-293.44h584.704c40.32 0 72.96 32.64 72.96 73.344 0 40.512-32.64 73.408-72.96 73.408H365.376V453.376z" fill="#000000" /></svg>