<svg class="svg-icon" style="width: 1em;height: 1em;vertical-align: middle;fill: currentColor;overflow: hidden;" viewBox="0 0 1024 1024" version="1.1" xmlns="http://www.w3.org/2000/svg"><path d="M961.864954 791.28258s-88.795315 17.773513-178.81888 36.305651c-59.967544 66.831299-119.754463 133.518098-119.754463 133.518098L534.650392 741.538418c-7.297255 0.4335-14.486136 1.083751-21.891766 1.083751-7.47788 0-14.666761-0.614125-21.964017-1.083751l-128.641219 219.567911S302.366471 894.383405 242.398928 827.588231c-90.023566-18.496014-178.818881-36.305652-178.818881-36.305651l139.948352-238.786425c-22.505891-45.192408-35.474776-95.73132-35.474776-149.449235 0-187.633387 154.253863-339.647499 344.741128-339.647499 190.378889 0 344.632752 152.050236 344.632752 339.647499 0 53.754039-13.00501 104.256826-35.510901 149.449235l139.948352 238.786425z m-291.890213 67.951174s43.061032-40.82128 83.629436-80.233683c57.366542-16.292387 115.383335-32.909899 115.383334-32.9099l-81.317434-138.792351c-46.890284 61.195795-114.227334 106.063078-192.076766 125.100966l74.38143 126.834968zM156.493615 746.090171s58.016792 16.617512 115.383334 32.9099c40.568405 39.412404 83.629436 80.233684 83.629436 80.233683L429.887815 732.362661c-77.849432-19.037889-145.186481-63.869047-192.076766-125.100966l-81.317434 138.828476z m356.265011-626.913709c-154.795738 0-280.330205 125.715092-280.330206 280.763706 0 155.156989 125.534467 280.835956 280.330206 280.835956 154.723488 0 280.22183-125.715092 280.22183-280.835956 0.036125-155.084739-125.498342-280.763706-280.22183-280.763706z m0 477.247725c-108.519579 0-196.411769-87.964439-196.411769-196.411769 0-108.447329 87.892189-196.339519 196.411769-196.339519 108.447329 0 196.339519 87.892189 196.339518 196.339519 0 108.447329-87.892189 196.411769-196.339518 196.411769z m0-336.721372c-77.488182 0-140.273478 62.821421-140.273478 140.273478 0 77.488182 62.821421 140.309603 140.273478 140.309603 77.379807 0 140.201228-62.821421 140.201227-140.309603 0-77.452057-62.785296-140.273478-140.201227-140.273478z" fill="#231815" /></svg>