<svg xmlns="http://www.w3.org/2000/svg" data-name="Layer 2" viewBox="0 0 64 64" id="scholarship"><path d="m9 44 10 7v9.5a.5.5 0 0 0 .5.5h9a.5.5 0 0 0 .5-.5V46.59a8 8 0 0 0-4-6.91l-5.26-3.08a2.74 2.74 0 0 0-3.92 1.34 2.79 2.79 0 0 0-.13 1.56l5.84 3.65-1.06 1.7-8-5a1 1 0 0 1-.44-.62L8.36 23.66a2.1 2.1 0 0 0-3 2.31zm46.64-20.34L52 39.23a1 1 0 0 1-.44.62l-8 5-1.06-1.7 5.84-3.65a2.79 2.79 0 0 0-.13-1.56 2.74 2.74 0 0 0-3.92-1.34L39 39.68a8 8 0 0 0-4 6.91V60.5a.5.5 0 0 0 .5.5h9a.5.5 0 0 0 .5-.5V51l10-7 3.61-18a2.1 2.1 0 0 0-3-2.31zM32.93 17.3a3.3 3.3 0 0 1-1.53 0L19 14v9a5 5 0 0 0 5 5h16a5 5 0 0 0 5-5v-8.88z"></path><path d="M53.54 7.85 32.37 3.39a1 1 0 0 0-.41 0L10.79 7.85a1 1 0 0 0 0 1.94l21.16 5.57a1.1 1.1 0 0 0 .51 0l21.12-5.57a1 1 0 0 0-.04-1.94Z"></path></svg>