<svg class="svg-icon" style="width: 1em; height: 1em;vertical-align: middle;fill: currentColor;overflow: hidden;" viewBox="0 0 1024 1024" version="1.1" xmlns="http://www.w3.org/2000/svg"><path d="M542.818181 623.970243C536.939866 623.851018 531.096737 623.516611 525.263494 622.748925 510.353539 620.786094 495.76985 616.462051 482.189677 610.00361 465.503579 602.067956 450.37495 590.921985 437.877969 577.310116 426.63749 565.064959 417.570665 550.868602 411.178524 535.526534 404.632847 519.81807 400.861594 502.958079 400.149159 485.952693 399.464058 469.598676 401.616193 453.151607 406.458716 437.518749 414.326033 412.118262 429.272336 389.067357 449.29263 371.561813 460.011141 362.192567 472.126025 354.440111 485.124036 348.630132 502.858433 340.700295 522.179377 336.373343 541.604716 336.044751 559.093976 335.748145 576.604172 338.693845 593.043681 344.666668 609.287489 350.566792 624.445196 359.395169 637.585405 370.622563 649.152442 380.503599 659.130893 392.222426 667.025542 405.229453 673.955936 416.645859 679.270118 429.027688 682.810483 441.906767 686.636403 455.821057 688.370093 470.296572 687.899597 484.719745 686.839955 517.206778 674.486048 548.902863 653.374995 573.608362 641.158336 587.903587 626.137302 599.744547 609.371818 608.267595 596.314194 614.903417 582.238806 619.535699 567.796732 621.975425 561.871891 622.975741 555.920587 623.525334 549.924792 623.851018 546.369306 623.955703 546.382973 623.955703 542.818181 623.970243L542.818181 623.970243ZM543.146483 582.093608C547.365261 582.07616 551.561357 581.898778 555.754255 581.407343 566.09881 580.191843 576.261041 577.385721 585.771611 573.14019 597.988271 567.687882 609.078411 559.807479 618.250211 550.06893 633.460261 533.915558 643.168275 512.871103 645.525709 490.805974 646.599885 480.753372 646.153523 470.552467 644.220352 460.63072 642.230189 450.418183 638.694477 440.50516 633.746398 431.351098 628.602618 421.836457 621.926375 413.165106 614.050916 405.749967 605.10913 397.331603 594.647387 390.553293 583.318508 385.81342 571.923329 381.044468 559.674101 378.35757 547.326877 377.953372 533.589677 377.505556 519.805079 379.898756 506.993463 384.868353 497.533491 388.535212 488.631834 393.615309 480.674954 399.910908 456.659208 418.916927 442.143855 448.542589 441.903953 479.174384 441.809737 491.21308 443.892955 503.237237 447.954125 514.566407 451.951322 525.718195 457.889249 536.148824 465.464612 545.256359 473.861749 555.35258 484.224624 563.77676 495.79922 569.976397 505.188822 575.004153 515.359194 578.56342 525.839839 580.465185 529.918456 581.206699 534.018592 581.642883 538.151005 581.930765 540.655869 582.044173 540.645981 582.044173 543.146483 582.093608L543.146483 582.093608ZM601.859846 785.492326 665.127558 766.36999 647.77497 681.889747C647.475456 679.88039 647.316102 679.377325 647.349542 677.335981 647.42457 672.735686 649.04601 668.22263 651.913491 664.625562 653.185984 663.029126 653.62944 662.741242 655.139219 661.380346 658.52576 658.943526 662.089094 656.753882 665.533498 654.392666 671.871264 649.902874 678.01536 645.180448 683.863725 640.065459 688.874611 635.683254 693.620013 631.039341 698.231648 626.238403L699.909792 624.673953C701.541126 623.458452 701.910138 623.077517 703.727283 622.141174 707.821312 620.030041 712.575437 619.323422 717.106522 620.15508 719.117619 620.524383 719.580851 620.780278 721.495411 621.46945L800.929286 655.128365 832.143827 596.827925 760.140499 549.388482C758.505389 548.178796 758.035763 547.934533 756.614675 546.466045 753.411917 543.156857 751.364755 538.80955 750.852384 534.232519 750.624986 532.202806 750.736358 531.685201 750.843949 529.65258 751.508698 525.598971 752.467718 521.597704 753.227264 517.558634 754.538144 509.934125 755.544563 502.277631 756.070893 494.554255 756.530637 487.81084 756.60944 481.067425 756.483814 474.312379L756.5664 472.020956C756.861555 470.00869 756.854573 469.482361 757.477446 467.536977 758.8808 463.154775 761.741293 459.298903 765.528832 456.687611 767.209888 455.527359 767.717901 455.381965 769.557434 454.515411L849.494086 422.141786 830.37088 358.877564 745.897037 376.252252C743.886803 376.551766 743.382867 376.7117 741.341229 376.679713 736.741229 376.604108 732.22439 374.984409 728.627027 372.117222 727.030592 370.843562 726.743002 370.398654 725.3824 368.889455 722.943546 365.501754 720.753312 361.93958 718.392973 358.493721 713.896781 352.148688 709.167379 345.995576 704.047443 340.139071 699.664659 335.122947 695.022202 330.371442 690.226496 325.7537L688.664666 324.075844C687.450618 322.444513 687.071718 322.07521 686.136243 320.260682 684.028602 316.16927 683.32489 311.420673 684.15568 306.893076 684.524109 304.883719 684.779712 304.421363 685.468883 302.507966L719.10599 223.070017 660.832013 191.859551 613.393149 263.91144C612.182592 265.545679 611.939201 266.016758 610.470712 267.43872 607.162106 270.643223 602.815962 272.690383 598.238931 273.205081 596.207474 273.431897 595.690159 273.321397 593.65812 273.213805 589.597532 272.547896 585.586959 271.58829 581.541783 270.82642 573.913786 269.512051 566.257291 268.497195 558.532461 267.96505 551.795153 267.499786 545.060461 267.418365 538.31094 267.543404L536.02068 267.461983C534.009287 267.165377 533.480631 267.174101 531.535829 266.548903 527.153627 265.147297 523.299209 262.285925 520.686753 258.496934 519.527375 256.81617 519.380817 256.307288 518.516008 254.469496L486.141801 174.508125 422.851698 193.653724 440.252268 278.154323C440.552653 280.169496 440.712588 280.672563 440.679728 282.716815 440.605286 287.320017 438.980353 291.841798 436.106768 295.441775 434.831364 297.038211 434.386747 297.326093 432.874058 298.686989 429.489265 301.117991 425.928545 303.301822 422.487338 305.657219 416.150448 310.144106 410.010131 314.866532 404.163803 319.978616 399.151169 324.360817 394.40199 329.00473 389.78483 333.802762L388.106682 335.364303C386.475642 336.576896 386.10663 336.95783 384.290648 337.891266 380.198655 339.999491 375.448604 340.703203 370.921007 339.871544 368.91194 339.505149 368.449003 339.249254 366.535606 338.557174L287.06945 304.89535 255.858984 363.172528 327.916399 410.638143C329.551219 411.847828 330.020844 412.092092 331.441933 413.56058 334.644692 416.869768 336.692143 421.214166 337.205387 425.78829 337.433075 427.82091 337.321994 428.338516 337.214692 430.368228 336.550528 434.424746 335.591213 438.434737 334.831089 442.476715 333.52108 450.095407 332.513785 457.746086 331.987164 465.460738 331.527426 472.201245 331.448622 478.935936 331.574534 485.685167L331.491659 487.97659C331.196507 489.988855 331.203486 490.518093 330.580324 492.463476 329.176682 496.845678 326.31531 500.701551 322.526319 503.312843 320.844682 504.473094 320.336672 504.618489 318.496555 505.485042L238.505814 537.861575 257.631348 601.151969 342.163352 583.774372C344.174164 583.474859 344.678102 583.314924 346.720028 583.34982 351.320904 583.422516 355.838614 585.045124 359.435683 587.915219 361.032119 589.188878 361.31942 589.633786 362.680025 591.142985 365.112191 594.52487 367.296603 598.081229 369.651419 601.518364 374.14005 607.851765 378.863638 613.990337 383.976886 619.835212 388.362287 624.848428 393.006781 629.597025 397.802776 634.214766L399.364609 635.892623C400.578947 637.523953 400.957846 637.893256 401.893316 639.710692 404.000961 643.802106 404.704381 648.550701 403.873013 653.078298 403.504291 655.087654 403.248397 655.55001 402.558934 657.463411L368.894784 736.933344 427.170508 768.164166 474.607043 696.115187C475.81731 694.480947 476.060701 694.009869 477.528899 692.587904 480.837214 689.38631 485.182776 687.336243 489.758935 686.821542 491.790102 686.594726 492.307416 686.705229 494.339165 686.812819 498.397718 687.478726 502.405673 688.435424 506.448814 689.197293 514.074776 690.50585 521.729526 691.514893 529.452029 692.041222 536.19399 692.500666 542.933334 692.579181 549.687508 692.454144L551.978059 692.535565C553.989452 692.832166 554.518108 692.823443 556.463201 693.44864 560.845693 694.850246 564.700403 697.711622 567.313148 701.500608 568.472527 703.181376 568.619085 703.690259 569.484185 705.530957 580.275975 732.184749 591.067765 758.838541 601.859846 785.492326L601.859846 785.492326ZM589.132559 831.994266C586.881846 831.822118 584.774493 831.55721 582.631081 830.797376 578.446908 829.314637 574.791098 826.491072 572.298739 822.817229 571.192575 821.186483 571.049797 820.697958 570.218429 818.920646L535.9474 734.275526C532.82839 734.185382 529.717811 734.008 526.603743 733.818989 522.631555 733.516563 522.646967 733.519475 518.667219 733.153075 513.401306 732.58313 508.168545 731.893958 502.935201 731.079744L501.844449 730.893638 451.626509 807.16489 450.313594 808.946266C448.789274 810.612787 447.280074 812.10919 445.359117 813.328467 440.975461 816.110746 435.613589 817.172128 430.500632 816.269517 428.259806 815.874042 426.294358 815.065651 424.250397 814.105459L332.273592 764.817178C330.34333 763.648198 328.582598 762.458874 327.013205 760.812998 322.910162 756.512218 320.802518 750.536493 321.299187 744.613101 321.489072 742.347853 322.114852 740.318138 322.884282 738.195373L358.517369 654.078618C356.451599 651.894784 354.456199 649.652794 352.459928 647.404992 349.860849 644.389498 349.871026 644.401133 347.32807 641.350746 343.98515 637.212808 340.75215 633.013804 337.608131 628.721747L336.827942 627.619654 247.335645 646.01792 245.148033 646.349421C242.892668 646.448294 240.767868 646.439565 238.547978 645.942317 233.482711 644.808237 228.942611 641.766579 225.966377 637.51523 224.662185 635.651267 223.844484 633.691345 223.077962 631.565671L192.893984 531.679385C192.356314 529.48683 191.951244 527.401868 192.004749 525.130799 192.145201 519.187056 194.88066 513.470129 199.421342 509.631704 201.157939 508.166124 203.035859 507.171623 205.080402 506.217832L289.752276 471.94535C289.84184 468.828084 290.021548 465.722449 290.209398 462.610998 290.511528 458.641718 290.510075 458.656257 290.876179 454.678253 291.444092 449.414959 292.132972 444.186559 292.948056 438.958159L293.135034 437.867697 216.859423 387.622132 215.078627 386.31067C213.412982 384.786932 211.917451 383.277733 210.698751 381.355613 207.917928 376.973411 206.856546 371.614156 207.757994 366.502071 208.153178 364.26299 208.960991 362.297251 209.920307 360.252999L259.180094 268.276195C260.349359 266.34535 261.536945 264.586072 263.182234 263.015807 267.483596 258.909856 273.459907 256.80163 279.384749 257.298881 281.650874 257.487894 283.680877 258.113092 285.80306 258.883685L369.920981 294.517064C372.105394 292.449548 374.348836 290.45473 376.596642 288.457005 379.616493 285.857344 379.604862 285.868975 382.655247 283.324565 386.797256 279.980483 391.002367 276.7469 395.297914 273.600555L396.40117 272.821238 377.982255 183.371397 377.651045 181.184658C377.550723 178.928129 377.559738 176.802456 378.055825 174.583731 379.187578 169.518172 382.227495 164.976036 386.479423 161.998349 388.342513 160.692703 390.303599 159.875583 392.427236 159.107899L492.313523 128.894842C494.505787 128.356881 496.591041 127.949775 498.864435 128.005025 504.808468 128.144604 510.525686 130.878028 514.364111 135.417256 515.832309 137.156179 516.825065 139.034681 517.781764 141.078933L552.054246 225.724927C555.17791 225.81798 558.29285 225.998269 561.411861 226.190191 565.38434 226.49552 565.368928 226.492612 569.348386 226.861916 574.612844 227.431863 579.844443 228.126851 585.076332 228.94397L586.15807 229.130076 636.373393 152.861734 637.686308 151.082101C639.210047 149.415876 640.718957 147.918308 642.639622 146.699899 647.022406 143.917041 652.383117 142.855658 657.495488 143.757107 659.735731 144.15258 661.701184 144.960976 663.745146 145.917675L755.721946 195.18037C757.652499 196.349345 759.413818 197.535767 760.983501 199.181637 765.087994 203.482418 767.1968 209.458147 766.701005 215.381535 766.511411 217.646787 765.88592 219.6765 765.116781 221.799265L729.508992 305.892759C731.578547 308.079498 733.577434 310.327303 735.576902 312.580924 738.176563 315.60223 738.166387 315.590598 740.710509 318.643891 744.05488 322.784737 747.289338 326.992465 750.435392 331.28743L751.227789 332.40697 840.661933 314.008701 842.849542 313.680109C845.105197 313.578333 847.229997 313.587057 849.449888 314.084307 854.515443 315.218387 859.05584 318.25714 862.032653 322.511395 863.336845 324.375357 864.154835 326.33528 864.921357 328.458045L895.105626 428.315253C895.64359 430.507808 896.048659 432.592771 895.995155 434.866746 895.855571 440.807581 893.12128 446.524508 888.58176 450.362933 886.845453 451.831421 884.967821 452.823014 882.923571 453.779713L798.306368 488.049288C798.2168 491.17237 798.0368 494.286728 797.848954 497.403994 797.546822 501.376183 797.548275 501.361644 797.18217 505.342556 796.614547 510.608758 795.92567 515.842974 795.110298 521.07719L794.924192 522.161836 871.142221 572.375413 872.922438 573.689783C874.587501 575.213521 876.083034 576.722721 877.30144 578.641933 880.081971 583.024134 881.143066 588.38339 880.242202 593.492566 879.847597 595.734556 879.040077 597.697386 878.08105 599.741638L828.821261 691.74752C827.651994 693.678368 826.46441 695.44055 824.818829 697.010816 820.517178 701.116768 814.539994 703.224992 808.614278 702.73065 806.347578 702.538733 804.31728 701.91353 802.194803 701.142938L718.115558 665.515379C715.929114 667.585798 713.683635 669.583526 711.433504 671.58416 708.413357 674.183821 708.424992 674.175098 705.373734 676.719507 701.233472 680.060678 697.029523 683.294266 692.736013 686.437702L691.619667 687.228646 709.990893 776.666861 710.320941 778.8536C710.420102 781.110125 710.410214 783.23289 709.913254 785.454528 708.779757 790.517178 705.739258 795.056403 701.487328 798.03264 699.623949 799.336832 697.663443 800.154528 695.540096 800.920762L595.68289 831.104448C593.519995 831.63543 593.534825 831.631942 591.343143 831.929421 590.606282 831.951226 589.86942 831.972749 589.132559 831.994266L589.132559 831.994266Z"  /></svg>